<mxfile host="app.diagrams.net" modified="2021-04-02T13:58:50.906Z" agent="5.0 (X11; Linux x86_64) AppleWebKit/537.36 (KHTML, like Gecko) Chrome/89.0.4389.90 Safari/537.36" etag="Db3axWSxYWk-RIucBgCJ" version="14.5.6" type="github" pages="3">
  <diagram id="i81SZt1gW0zz2mnZzYy8" name="01-insecure">
    <mxGraphModel dx="1512" dy="824" grid="1" gridSize="10" guides="1" tooltips="1" connect="1" arrows="1" fold="1" page="1" pageScale="1" pageWidth="1100" pageHeight="850" math="0" shadow="0">
      <root>
        <mxCell id="0" />
        <mxCell id="1" parent="0" />
        <mxCell id="FX9UPKlD99VvrCkjxtR1-1" value="" style="rounded=0;whiteSpace=wrap;html=1;strokeColor=none;" vertex="1" parent="1">
          <mxGeometry x="200" y="40" width="880" height="720" as="geometry" />
        </mxCell>
        <mxCell id="j6sO708Eybx2vTRwNkrv-1" value="AWS Cloud" style="points=[[0,0],[0.25,0],[0.5,0],[0.75,0],[1,0],[1,0.25],[1,0.5],[1,0.75],[1,1],[0.75,1],[0.5,1],[0.25,1],[0,1],[0,0.75],[0,0.5],[0,0.25]];outlineConnect=0;gradientColor=none;html=1;whiteSpace=wrap;fontSize=12;fontStyle=0;shape=mxgraph.aws4.group;grIcon=mxgraph.aws4.group_aws_cloud_alt;strokeColor=#232F3E;fillColor=none;verticalAlign=top;align=left;spacingLeft=30;fontColor=#232F3E;dashed=0;" vertex="1" parent="1">
          <mxGeometry x="400" y="80" width="640" height="640" as="geometry" />
        </mxCell>
        <mxCell id="g80w_V8hiLejYrdxfZdK-3" value="Public subnet" style="points=[[0,0],[0.25,0],[0.5,0],[0.75,0],[1,0],[1,0.25],[1,0.5],[1,0.75],[1,1],[0.75,1],[0.5,1],[0.25,1],[0,1],[0,0.75],[0,0.5],[0,0.25]];outlineConnect=0;gradientColor=none;html=1;whiteSpace=wrap;fontSize=12;fontStyle=0;shape=mxgraph.aws4.group;grIcon=mxgraph.aws4.group_security_group;grStroke=0;strokeColor=#248814;fillColor=#E9F3E6;verticalAlign=top;align=left;spacingLeft=30;fontColor=#248814;dashed=0;" parent="1" vertex="1">
          <mxGeometry x="440" y="400" width="560" height="240" as="geometry" />
        </mxCell>
        <mxCell id="g80w_V8hiLejYrdxfZdK-1" value="Server 1" style="points=[[0,0,0],[0.25,0,0],[0.5,0,0],[0.75,0,0],[1,0,0],[0,1,0],[0.25,1,0],[0.5,1,0],[0.75,1,0],[1,1,0],[0,0.25,0],[0,0.5,0],[0,0.75,0],[1,0.25,0],[1,0.5,0],[1,0.75,0]];outlineConnect=0;fontColor=#232F3E;gradientColor=#F78E04;gradientDirection=north;fillColor=#D05C17;strokeColor=#ffffff;dashed=0;verticalLabelPosition=top;verticalAlign=bottom;align=center;html=1;fontSize=12;fontStyle=0;aspect=fixed;shape=mxgraph.aws4.resourceIcon;resIcon=mxgraph.aws4.ec2;labelPosition=center;" parent="1" vertex="1">
          <mxGeometry x="520" y="440" width="38" height="38" as="geometry" />
        </mxCell>
        <mxCell id="g80w_V8hiLejYrdxfZdK-26" style="edgeStyle=orthogonalEdgeStyle;rounded=0;orthogonalLoop=1;jettySize=auto;html=1;" parent="1" source="g80w_V8hiLejYrdxfZdK-5" target="g80w_V8hiLejYrdxfZdK-1" edge="1">
          <mxGeometry relative="1" as="geometry" />
        </mxCell>
        <mxCell id="g80w_V8hiLejYrdxfZdK-32" style="edgeStyle=orthogonalEdgeStyle;rounded=0;orthogonalLoop=1;jettySize=auto;html=1;endArrow=none;endFill=0;startArrow=classic;startFill=1;" parent="1" source="g80w_V8hiLejYrdxfZdK-5" edge="1">
          <mxGeometry relative="1" as="geometry">
            <mxPoint x="539" y="660" as="targetPoint" />
          </mxGeometry>
        </mxCell>
        <mxCell id="g80w_V8hiLejYrdxfZdK-2" value="Private subnet" style="points=[[0,0],[0.25,0],[0.5,0],[0.75,0],[1,0],[1,0.25],[1,0.5],[1,0.75],[1,1],[0.75,1],[0.5,1],[0.25,1],[0,1],[0,0.75],[0,0.5],[0,0.25]];outlineConnect=0;gradientColor=none;html=1;whiteSpace=wrap;fontSize=12;fontStyle=0;shape=mxgraph.aws4.group;grIcon=mxgraph.aws4.group_security_group;grStroke=0;strokeColor=#147EBA;fillColor=#E6F2F8;verticalAlign=top;align=left;spacingLeft=30;fontColor=#147EBA;dashed=0;" parent="1" vertex="1">
          <mxGeometry x="440" y="120" width="560" height="240" as="geometry" />
        </mxCell>
        <mxCell id="g80w_V8hiLejYrdxfZdK-6" value="Server 2" style="points=[[0,0,0],[0.25,0,0],[0.5,0,0],[0.75,0,0],[1,0,0],[0,1,0],[0.25,1,0],[0.5,1,0],[0.75,1,0],[1,1,0],[0,0.25,0],[0,0.5,0],[0,0.75,0],[1,0.25,0],[1,0.5,0],[1,0.75,0]];outlineConnect=0;fontColor=#232F3E;gradientColor=#F78E04;gradientDirection=north;fillColor=#D05C17;strokeColor=#ffffff;dashed=0;verticalLabelPosition=top;verticalAlign=bottom;align=center;html=1;fontSize=12;fontStyle=0;aspect=fixed;shape=mxgraph.aws4.resourceIcon;resIcon=mxgraph.aws4.ec2;labelPosition=center;" parent="1" vertex="1">
          <mxGeometry x="641" y="440" width="38" height="38" as="geometry" />
        </mxCell>
        <mxCell id="g80w_V8hiLejYrdxfZdK-7" value="Server 3" style="points=[[0,0,0],[0.25,0,0],[0.5,0,0],[0.75,0,0],[1,0,0],[0,1,0],[0.25,1,0],[0.5,1,0],[0.75,1,0],[1,1,0],[0,0.25,0],[0,0.5,0],[0,0.75,0],[1,0.25,0],[1,0.5,0],[1,0.75,0]];outlineConnect=0;fontColor=#232F3E;gradientColor=#F78E04;gradientDirection=north;fillColor=#D05C17;strokeColor=#ffffff;dashed=0;verticalLabelPosition=top;verticalAlign=bottom;align=center;html=1;fontSize=12;fontStyle=0;aspect=fixed;shape=mxgraph.aws4.resourceIcon;resIcon=mxgraph.aws4.ec2;labelPosition=center;" parent="1" vertex="1">
          <mxGeometry x="761" y="440" width="38" height="38" as="geometry" />
        </mxCell>
        <mxCell id="g80w_V8hiLejYrdxfZdK-8" value="Server 4" style="points=[[0,0,0],[0.25,0,0],[0.5,0,0],[0.75,0,0],[1,0,0],[0,1,0],[0.25,1,0],[0.5,1,0],[0.75,1,0],[1,1,0],[0,0.25,0],[0,0.5,0],[0,0.75,0],[1,0.25,0],[1,0.5,0],[1,0.75,0]];outlineConnect=0;fontColor=#232F3E;gradientColor=#F78E04;gradientDirection=north;fillColor=#D05C17;strokeColor=#ffffff;dashed=0;verticalLabelPosition=top;verticalAlign=bottom;align=center;html=1;fontSize=12;fontStyle=0;aspect=fixed;shape=mxgraph.aws4.resourceIcon;resIcon=mxgraph.aws4.ec2;labelPosition=center;" parent="1" vertex="1">
          <mxGeometry x="880" y="440" width="38" height="38" as="geometry" />
        </mxCell>
        <mxCell id="g80w_V8hiLejYrdxfZdK-23" style="edgeStyle=orthogonalEdgeStyle;rounded=0;orthogonalLoop=1;jettySize=auto;html=1;" parent="1" source="g80w_V8hiLejYrdxfZdK-11" target="g80w_V8hiLejYrdxfZdK-6" edge="1">
          <mxGeometry relative="1" as="geometry" />
        </mxCell>
        <mxCell id="g80w_V8hiLejYrdxfZdK-25" style="edgeStyle=orthogonalEdgeStyle;rounded=0;orthogonalLoop=1;jettySize=auto;html=1;entryX=0.5;entryY=1;entryDx=0;entryDy=0;entryPerimeter=0;" parent="1" source="g80w_V8hiLejYrdxfZdK-12" target="g80w_V8hiLejYrdxfZdK-8" edge="1">
          <mxGeometry relative="1" as="geometry" />
        </mxCell>
        <mxCell id="g80w_V8hiLejYrdxfZdK-24" style="edgeStyle=orthogonalEdgeStyle;rounded=0;orthogonalLoop=1;jettySize=auto;html=1;" parent="1" source="g80w_V8hiLejYrdxfZdK-13" target="g80w_V8hiLejYrdxfZdK-7" edge="1">
          <mxGeometry relative="1" as="geometry" />
        </mxCell>
        <mxCell id="g80w_V8hiLejYrdxfZdK-28" value="" style="endArrow=none;html=1;" parent="1" edge="1">
          <mxGeometry width="50" height="50" relative="1" as="geometry">
            <mxPoint x="900" y="660" as="sourcePoint" />
            <mxPoint x="320" y="660" as="targetPoint" />
          </mxGeometry>
        </mxCell>
        <mxCell id="g80w_V8hiLejYrdxfZdK-33" style="edgeStyle=orthogonalEdgeStyle;rounded=0;orthogonalLoop=1;jettySize=auto;html=1;endArrow=none;endFill=0;startArrow=classic;startFill=1;" parent="1" edge="1">
          <mxGeometry relative="1" as="geometry">
            <mxPoint x="659.58" y="660" as="targetPoint" />
            <mxPoint x="659.58" y="560" as="sourcePoint" />
          </mxGeometry>
        </mxCell>
        <mxCell id="g80w_V8hiLejYrdxfZdK-34" style="edgeStyle=orthogonalEdgeStyle;rounded=0;orthogonalLoop=1;jettySize=auto;html=1;endArrow=none;endFill=0;startArrow=classic;startFill=1;" parent="1" edge="1">
          <mxGeometry relative="1" as="geometry">
            <mxPoint x="778.58" y="660" as="targetPoint" />
            <mxPoint x="778.58" y="560" as="sourcePoint" />
          </mxGeometry>
        </mxCell>
        <mxCell id="g80w_V8hiLejYrdxfZdK-35" style="edgeStyle=orthogonalEdgeStyle;rounded=0;orthogonalLoop=1;jettySize=auto;html=1;endArrow=none;endFill=0;startArrow=classic;startFill=1;" parent="1" edge="1">
          <mxGeometry relative="1" as="geometry">
            <mxPoint x="898.5799999999999" y="660" as="targetPoint" />
            <mxPoint x="898.5799999999999" y="560" as="sourcePoint" />
          </mxGeometry>
        </mxCell>
        <mxCell id="g80w_V8hiLejYrdxfZdK-5" value="IP: 52.14.23.1" style="outlineConnect=0;gradientColor=none;strokeColor=#232F3E;fillColor=#ffffff;dashed=0;verticalLabelPosition=middle;verticalAlign=middle;align=right;html=1;fontSize=10;fontStyle=0;aspect=fixed;shape=mxgraph.aws4.resourceIcon;resIcon=mxgraph.aws4.elastic_ip_address;fontColor=#999999;labelPosition=left;" parent="1" vertex="1">
          <mxGeometry x="519" y="520" width="40" height="40" as="geometry" />
        </mxCell>
        <mxCell id="g80w_V8hiLejYrdxfZdK-11" value="IP: 52.14.23.2" style="outlineConnect=0;gradientColor=none;strokeColor=#232F3E;fillColor=#ffffff;dashed=0;verticalLabelPosition=middle;verticalAlign=middle;align=right;html=1;fontSize=10;fontStyle=0;aspect=fixed;shape=mxgraph.aws4.resourceIcon;resIcon=mxgraph.aws4.elastic_ip_address;fontColor=#999999;labelPosition=left;" parent="1" vertex="1">
          <mxGeometry x="640" y="520" width="40" height="40" as="geometry" />
        </mxCell>
        <mxCell id="g80w_V8hiLejYrdxfZdK-12" value="IP: 52.14.23.4" style="outlineConnect=0;gradientColor=none;strokeColor=#232F3E;fillColor=#ffffff;dashed=0;verticalLabelPosition=middle;verticalAlign=middle;align=right;html=1;fontSize=10;fontStyle=0;aspect=fixed;shape=mxgraph.aws4.resourceIcon;resIcon=mxgraph.aws4.elastic_ip_address;fontColor=#999999;labelPosition=left;" parent="1" vertex="1">
          <mxGeometry x="879" y="520" width="40" height="40" as="geometry" />
        </mxCell>
        <mxCell id="g80w_V8hiLejYrdxfZdK-13" value="IP: 52.14.23.3" style="outlineConnect=0;gradientColor=none;strokeColor=#232F3E;fillColor=#ffffff;dashed=0;verticalLabelPosition=middle;verticalAlign=middle;align=right;html=1;fontSize=10;fontStyle=0;aspect=fixed;shape=mxgraph.aws4.resourceIcon;resIcon=mxgraph.aws4.elastic_ip_address;fontColor=#999999;labelPosition=left;" parent="1" vertex="1">
          <mxGeometry x="760" y="520" width="40" height="40" as="geometry" />
        </mxCell>
        <mxCell id="GWkG-A8sMMsQngepEDWC-1" value="" style="points=[];aspect=fixed;html=1;align=center;shadow=0;dashed=0;image;image=img/lib/allied_telesis/computer_and_terminals/Personal_Computer_with_Server.svg;" vertex="1" parent="1">
          <mxGeometry x="250" y="629" width="62.400000000000006" height="62.400000000000006" as="geometry" />
        </mxCell>
      </root>
    </mxGraphModel>
  </diagram>
  <diagram name="02-bastion-public-subnet" id="hQwlCso6szpprCGJYPE1">
    <mxGraphModel dx="1512" dy="824" grid="1" gridSize="10" guides="1" tooltips="1" connect="1" arrows="1" fold="1" page="1" pageScale="1" pageWidth="1100" pageHeight="850" math="0" shadow="0">
      <root>
        <mxCell id="RjcFv7_UHUqGH6PPX5Wa-0" />
        <mxCell id="RjcFv7_UHUqGH6PPX5Wa-1" parent="RjcFv7_UHUqGH6PPX5Wa-0" />
        <mxCell id="-pHAmE7dyxk4wnNUDP0y-0" value="" style="rounded=0;whiteSpace=wrap;html=1;strokeColor=none;" vertex="1" parent="RjcFv7_UHUqGH6PPX5Wa-1">
          <mxGeometry x="200" y="40" width="880" height="720" as="geometry" />
        </mxCell>
        <mxCell id="Cctg6dxlCYYJ5TEzQDHp-21" value="AWS Cloud" style="points=[[0,0],[0.25,0],[0.5,0],[0.75,0],[1,0],[1,0.25],[1,0.5],[1,0.75],[1,1],[0.75,1],[0.5,1],[0.25,1],[0,1],[0,0.75],[0,0.5],[0,0.25]];outlineConnect=0;gradientColor=none;html=1;whiteSpace=wrap;fontSize=12;fontStyle=0;shape=mxgraph.aws4.group;grIcon=mxgraph.aws4.group_aws_cloud_alt;strokeColor=#232F3E;fillColor=none;verticalAlign=top;align=left;spacingLeft=30;fontColor=#232F3E;dashed=0;" vertex="1" parent="RjcFv7_UHUqGH6PPX5Wa-1">
          <mxGeometry x="400" y="80" width="640" height="640" as="geometry" />
        </mxCell>
        <mxCell id="Cctg6dxlCYYJ5TEzQDHp-22" value="Public subnet" style="points=[[0,0],[0.25,0],[0.5,0],[0.75,0],[1,0],[1,0.25],[1,0.5],[1,0.75],[1,1],[0.75,1],[0.5,1],[0.25,1],[0,1],[0,0.75],[0,0.5],[0,0.25]];outlineConnect=0;gradientColor=none;html=1;whiteSpace=wrap;fontSize=12;fontStyle=0;shape=mxgraph.aws4.group;grIcon=mxgraph.aws4.group_security_group;grStroke=0;strokeColor=#248814;fillColor=#E9F3E6;verticalAlign=top;align=left;spacingLeft=30;fontColor=#248814;dashed=0;" vertex="1" parent="RjcFv7_UHUqGH6PPX5Wa-1">
          <mxGeometry x="440" y="400" width="560" height="240" as="geometry" />
        </mxCell>
        <mxCell id="Cctg6dxlCYYJ5TEzQDHp-23" value="Server 1" style="points=[[0,0,0],[0.25,0,0],[0.5,0,0],[0.75,0,0],[1,0,0],[0,1,0],[0.25,1,0],[0.5,1,0],[0.75,1,0],[1,1,0],[0,0.25,0],[0,0.5,0],[0,0.75,0],[1,0.25,0],[1,0.5,0],[1,0.75,0]];outlineConnect=0;fontColor=#232F3E;gradientColor=#F78E04;gradientDirection=north;fillColor=#D05C17;strokeColor=#ffffff;dashed=0;verticalLabelPosition=top;verticalAlign=bottom;align=center;html=1;fontSize=12;fontStyle=0;aspect=fixed;shape=mxgraph.aws4.resourceIcon;resIcon=mxgraph.aws4.ec2;labelPosition=center;" vertex="1" parent="RjcFv7_UHUqGH6PPX5Wa-1">
          <mxGeometry x="520" y="440" width="38" height="38" as="geometry" />
        </mxCell>
        <mxCell id="Cctg6dxlCYYJ5TEzQDHp-26" value="Private subnet" style="points=[[0,0],[0.25,0],[0.5,0],[0.75,0],[1,0],[1,0.25],[1,0.5],[1,0.75],[1,1],[0.75,1],[0.5,1],[0.25,1],[0,1],[0,0.75],[0,0.5],[0,0.25]];outlineConnect=0;gradientColor=none;html=1;whiteSpace=wrap;fontSize=12;fontStyle=0;shape=mxgraph.aws4.group;grIcon=mxgraph.aws4.group_security_group;grStroke=0;strokeColor=#147EBA;fillColor=#E6F2F8;verticalAlign=top;align=left;spacingLeft=30;fontColor=#147EBA;dashed=0;" vertex="1" parent="RjcFv7_UHUqGH6PPX5Wa-1">
          <mxGeometry x="440" y="120" width="560" height="240" as="geometry" />
        </mxCell>
        <mxCell id="Cctg6dxlCYYJ5TEzQDHp-27" value="Server 2" style="points=[[0,0,0],[0.25,0,0],[0.5,0,0],[0.75,0,0],[1,0,0],[0,1,0],[0.25,1,0],[0.5,1,0],[0.75,1,0],[1,1,0],[0,0.25,0],[0,0.5,0],[0,0.75,0],[1,0.25,0],[1,0.5,0],[1,0.75,0]];outlineConnect=0;fontColor=#232F3E;gradientColor=#F78E04;gradientDirection=north;fillColor=#D05C17;strokeColor=#ffffff;dashed=0;verticalLabelPosition=top;verticalAlign=bottom;align=center;html=1;fontSize=12;fontStyle=0;aspect=fixed;shape=mxgraph.aws4.resourceIcon;resIcon=mxgraph.aws4.ec2;labelPosition=center;" vertex="1" parent="RjcFv7_UHUqGH6PPX5Wa-1">
          <mxGeometry x="641" y="440" width="38" height="38" as="geometry" />
        </mxCell>
        <mxCell id="Cctg6dxlCYYJ5TEzQDHp-28" value="Server 3" style="points=[[0,0,0],[0.25,0,0],[0.5,0,0],[0.75,0,0],[1,0,0],[0,1,0],[0.25,1,0],[0.5,1,0],[0.75,1,0],[1,1,0],[0,0.25,0],[0,0.5,0],[0,0.75,0],[1,0.25,0],[1,0.5,0],[1,0.75,0]];outlineConnect=0;fontColor=#232F3E;gradientColor=#F78E04;gradientDirection=north;fillColor=#D05C17;strokeColor=#ffffff;dashed=0;verticalLabelPosition=top;verticalAlign=bottom;align=center;html=1;fontSize=12;fontStyle=0;aspect=fixed;shape=mxgraph.aws4.resourceIcon;resIcon=mxgraph.aws4.ec2;labelPosition=center;" vertex="1" parent="RjcFv7_UHUqGH6PPX5Wa-1">
          <mxGeometry x="761" y="440" width="38" height="38" as="geometry" />
        </mxCell>
        <mxCell id="Cctg6dxlCYYJ5TEzQDHp-29" value="Server 4" style="points=[[0,0,0],[0.25,0,0],[0.5,0,0],[0.75,0,0],[1,0,0],[0,1,0],[0.25,1,0],[0.5,1,0],[0.75,1,0],[1,1,0],[0,0.25,0],[0,0.5,0],[0,0.75,0],[1,0.25,0],[1,0.5,0],[1,0.75,0]];outlineConnect=0;fontColor=#232F3E;gradientColor=#F78E04;gradientDirection=north;fillColor=#D05C17;strokeColor=#ffffff;dashed=0;verticalLabelPosition=top;verticalAlign=bottom;align=center;html=1;fontSize=12;fontStyle=0;aspect=fixed;shape=mxgraph.aws4.resourceIcon;resIcon=mxgraph.aws4.ec2;labelPosition=center;" vertex="1" parent="RjcFv7_UHUqGH6PPX5Wa-1">
          <mxGeometry x="880" y="440" width="38" height="38" as="geometry" />
        </mxCell>
        <mxCell id="Cctg6dxlCYYJ5TEzQDHp-34" value="" style="endArrow=none;html=1;" edge="1" parent="RjcFv7_UHUqGH6PPX5Wa-1">
          <mxGeometry width="50" height="50" relative="1" as="geometry">
            <mxPoint x="720" y="660" as="sourcePoint" />
            <mxPoint x="320" y="660" as="targetPoint" />
          </mxGeometry>
        </mxCell>
        <mxCell id="Cctg6dxlCYYJ5TEzQDHp-43" style="edgeStyle=orthogonalEdgeStyle;rounded=0;orthogonalLoop=1;jettySize=auto;html=1;startArrow=classic;startFill=1;endArrow=none;endFill=0;" edge="1" parent="RjcFv7_UHUqGH6PPX5Wa-1" source="Cctg6dxlCYYJ5TEzQDHp-42">
          <mxGeometry relative="1" as="geometry">
            <mxPoint x="720" y="660" as="targetPoint" />
          </mxGeometry>
        </mxCell>
        <mxCell id="Cctg6dxlCYYJ5TEzQDHp-47" style="edgeStyle=orthogonalEdgeStyle;rounded=0;orthogonalLoop=1;jettySize=auto;html=1;startArrow=none;startFill=0;endArrow=classic;endFill=1;" edge="1" parent="RjcFv7_UHUqGH6PPX5Wa-1" source="Cctg6dxlCYYJ5TEzQDHp-42" target="Cctg6dxlCYYJ5TEzQDHp-44">
          <mxGeometry relative="1" as="geometry" />
        </mxCell>
        <mxCell id="Cctg6dxlCYYJ5TEzQDHp-42" value="IP: 52.14.23.5" style="outlineConnect=0;gradientColor=none;strokeColor=#232F3E;fillColor=#ffffff;dashed=0;verticalLabelPosition=middle;verticalAlign=middle;align=right;html=1;fontSize=10;fontStyle=0;aspect=fixed;shape=mxgraph.aws4.resourceIcon;resIcon=mxgraph.aws4.elastic_ip_address;fontColor=#999999;labelPosition=left;" vertex="1" parent="RjcFv7_UHUqGH6PPX5Wa-1">
          <mxGeometry x="700" y="580" width="40" height="40" as="geometry" />
        </mxCell>
        <mxCell id="Cctg6dxlCYYJ5TEzQDHp-48" style="edgeStyle=orthogonalEdgeStyle;rounded=0;orthogonalLoop=1;jettySize=auto;html=1;startArrow=none;startFill=0;endArrow=classic;endFill=1;" edge="1" parent="RjcFv7_UHUqGH6PPX5Wa-1" source="Cctg6dxlCYYJ5TEzQDHp-44" target="Cctg6dxlCYYJ5TEzQDHp-23">
          <mxGeometry relative="1" as="geometry" />
        </mxCell>
        <mxCell id="Cctg6dxlCYYJ5TEzQDHp-49" style="edgeStyle=orthogonalEdgeStyle;rounded=0;orthogonalLoop=1;jettySize=auto;html=1;startArrow=none;startFill=0;endArrow=classic;endFill=1;" edge="1" parent="RjcFv7_UHUqGH6PPX5Wa-1" source="Cctg6dxlCYYJ5TEzQDHp-44" target="Cctg6dxlCYYJ5TEzQDHp-27">
          <mxGeometry relative="1" as="geometry" />
        </mxCell>
        <mxCell id="Cctg6dxlCYYJ5TEzQDHp-50" style="edgeStyle=orthogonalEdgeStyle;rounded=0;orthogonalLoop=1;jettySize=auto;html=1;startArrow=none;startFill=0;endArrow=classic;endFill=1;" edge="1" parent="RjcFv7_UHUqGH6PPX5Wa-1" source="Cctg6dxlCYYJ5TEzQDHp-44" target="Cctg6dxlCYYJ5TEzQDHp-28">
          <mxGeometry relative="1" as="geometry" />
        </mxCell>
        <mxCell id="Cctg6dxlCYYJ5TEzQDHp-51" style="edgeStyle=orthogonalEdgeStyle;rounded=0;orthogonalLoop=1;jettySize=auto;html=1;entryX=0.5;entryY=1;entryDx=0;entryDy=0;entryPerimeter=0;startArrow=none;startFill=0;endArrow=classic;endFill=1;" edge="1" parent="RjcFv7_UHUqGH6PPX5Wa-1" source="Cctg6dxlCYYJ5TEzQDHp-44" target="Cctg6dxlCYYJ5TEzQDHp-29">
          <mxGeometry relative="1" as="geometry" />
        </mxCell>
        <mxCell id="Cctg6dxlCYYJ5TEzQDHp-44" value="Bastion Server" style="points=[[0,0,0],[0.25,0,0],[0.5,0,0],[0.75,0,0],[1,0,0],[0,1,0],[0.25,1,0],[0.5,1,0],[0.75,1,0],[1,1,0],[0,0.25,0],[0,0.5,0],[0,0.75,0],[1,0.25,0],[1,0.5,0],[1,0.75,0]];outlineConnect=0;fontColor=#232F3E;gradientColor=#F78E04;gradientDirection=north;fillColor=#D05C17;strokeColor=#ffffff;dashed=0;verticalLabelPosition=top;verticalAlign=bottom;align=center;html=1;fontSize=12;fontStyle=0;aspect=fixed;shape=mxgraph.aws4.resourceIcon;resIcon=mxgraph.aws4.ec2;labelPosition=center;" vertex="1" parent="RjcFv7_UHUqGH6PPX5Wa-1">
          <mxGeometry x="701" y="510" width="38" height="38" as="geometry" />
        </mxCell>
        <mxCell id="nnkZqGf3pF5gJffqYEbv-0" value="" style="points=[];aspect=fixed;html=1;align=center;shadow=0;dashed=0;image;image=img/lib/allied_telesis/computer_and_terminals/Personal_Computer_with_Server.svg;" vertex="1" parent="RjcFv7_UHUqGH6PPX5Wa-1">
          <mxGeometry x="250" y="629" width="62.400000000000006" height="62.400000000000006" as="geometry" />
        </mxCell>
      </root>
    </mxGraphModel>
  </diagram>
  <diagram name="03-bastion-private-subnet" id="PFMLqLyQNSvK-D8tbCjz">
    <mxGraphModel dx="1512" dy="824" grid="1" gridSize="10" guides="1" tooltips="1" connect="1" arrows="1" fold="1" page="1" pageScale="1" pageWidth="1100" pageHeight="850" math="0" shadow="0">
      <root>
        <mxCell id="HaWWDFJNPZMZutAHSfWt-0" />
        <mxCell id="HaWWDFJNPZMZutAHSfWt-1" parent="HaWWDFJNPZMZutAHSfWt-0" />
        <mxCell id="LyoY9f2mYWrU3qJzchod-0" value="" style="rounded=0;whiteSpace=wrap;html=1;strokeColor=none;" vertex="1" parent="HaWWDFJNPZMZutAHSfWt-1">
          <mxGeometry x="210" y="40" width="870" height="720" as="geometry" />
        </mxCell>
        <mxCell id="HaWWDFJNPZMZutAHSfWt-2" value="AWS Cloud" style="points=[[0,0],[0.25,0],[0.5,0],[0.75,0],[1,0],[1,0.25],[1,0.5],[1,0.75],[1,1],[0.75,1],[0.5,1],[0.25,1],[0,1],[0,0.75],[0,0.5],[0,0.25]];outlineConnect=0;gradientColor=none;html=1;whiteSpace=wrap;fontSize=12;fontStyle=0;shape=mxgraph.aws4.group;grIcon=mxgraph.aws4.group_aws_cloud_alt;strokeColor=#232F3E;fillColor=none;verticalAlign=top;align=left;spacingLeft=30;fontColor=#232F3E;dashed=0;" vertex="1" parent="HaWWDFJNPZMZutAHSfWt-1">
          <mxGeometry x="400" y="80" width="640" height="640" as="geometry" />
        </mxCell>
        <mxCell id="HaWWDFJNPZMZutAHSfWt-3" value="Public subnet" style="points=[[0,0],[0.25,0],[0.5,0],[0.75,0],[1,0],[1,0.25],[1,0.5],[1,0.75],[1,1],[0.75,1],[0.5,1],[0.25,1],[0,1],[0,0.75],[0,0.5],[0,0.25]];outlineConnect=0;gradientColor=none;html=1;whiteSpace=wrap;fontSize=12;fontStyle=0;shape=mxgraph.aws4.group;grIcon=mxgraph.aws4.group_security_group;grStroke=0;strokeColor=#248814;fillColor=#E9F3E6;verticalAlign=top;align=left;spacingLeft=30;fontColor=#248814;dashed=0;" vertex="1" parent="HaWWDFJNPZMZutAHSfWt-1">
          <mxGeometry x="440" y="400" width="560" height="240" as="geometry" />
        </mxCell>
        <mxCell id="HaWWDFJNPZMZutAHSfWt-5" value="Private subnet" style="points=[[0,0],[0.25,0],[0.5,0],[0.75,0],[1,0],[1,0.25],[1,0.5],[1,0.75],[1,1],[0.75,1],[0.5,1],[0.25,1],[0,1],[0,0.75],[0,0.5],[0,0.25]];outlineConnect=0;gradientColor=none;html=1;whiteSpace=wrap;fontSize=12;fontStyle=0;shape=mxgraph.aws4.group;grIcon=mxgraph.aws4.group_security_group;grStroke=0;strokeColor=#147EBA;fillColor=#E6F2F8;verticalAlign=top;align=left;spacingLeft=30;fontColor=#147EBA;dashed=0;" vertex="1" parent="HaWWDFJNPZMZutAHSfWt-1">
          <mxGeometry x="440" y="120" width="560" height="240" as="geometry" />
        </mxCell>
        <mxCell id="HaWWDFJNPZMZutAHSfWt-9" value="" style="points=[];aspect=fixed;html=1;align=center;shadow=0;dashed=0;image;image=img/lib/allied_telesis/computer_and_terminals/Personal_Computer_with_Server.svg;" vertex="1" parent="HaWWDFJNPZMZutAHSfWt-1">
          <mxGeometry x="250" y="629" width="62.400000000000006" height="62.400000000000006" as="geometry" />
        </mxCell>
        <mxCell id="HaWWDFJNPZMZutAHSfWt-10" value="" style="endArrow=none;html=1;" edge="1" parent="HaWWDFJNPZMZutAHSfWt-1">
          <mxGeometry width="50" height="50" relative="1" as="geometry">
            <mxPoint x="720" y="660" as="sourcePoint" />
            <mxPoint x="320" y="660" as="targetPoint" />
          </mxGeometry>
        </mxCell>
        <mxCell id="HaWWDFJNPZMZutAHSfWt-11" style="edgeStyle=orthogonalEdgeStyle;rounded=0;orthogonalLoop=1;jettySize=auto;html=1;startArrow=classic;startFill=1;endArrow=none;endFill=0;" edge="1" parent="HaWWDFJNPZMZutAHSfWt-1" source="HaWWDFJNPZMZutAHSfWt-13">
          <mxGeometry relative="1" as="geometry">
            <mxPoint x="720" y="660" as="targetPoint" />
          </mxGeometry>
        </mxCell>
        <mxCell id="HaWWDFJNPZMZutAHSfWt-12" style="edgeStyle=orthogonalEdgeStyle;rounded=0;orthogonalLoop=1;jettySize=auto;html=1;startArrow=none;startFill=0;endArrow=classic;endFill=1;" edge="1" parent="HaWWDFJNPZMZutAHSfWt-1" source="HaWWDFJNPZMZutAHSfWt-13" target="HaWWDFJNPZMZutAHSfWt-18">
          <mxGeometry relative="1" as="geometry" />
        </mxCell>
        <mxCell id="HaWWDFJNPZMZutAHSfWt-13" value="IP: 52.14.23.5" style="outlineConnect=0;gradientColor=none;strokeColor=#232F3E;fillColor=#ffffff;dashed=0;verticalLabelPosition=middle;verticalAlign=middle;align=right;html=1;fontSize=10;fontStyle=0;aspect=fixed;shape=mxgraph.aws4.resourceIcon;resIcon=mxgraph.aws4.elastic_ip_address;fontColor=#999999;labelPosition=left;" vertex="1" parent="HaWWDFJNPZMZutAHSfWt-1">
          <mxGeometry x="700" y="550" width="40" height="40" as="geometry" />
        </mxCell>
        <mxCell id="HaWWDFJNPZMZutAHSfWt-14" style="edgeStyle=orthogonalEdgeStyle;rounded=0;orthogonalLoop=1;jettySize=auto;html=1;startArrow=none;startFill=0;endArrow=classic;endFill=1;" edge="1" parent="HaWWDFJNPZMZutAHSfWt-1" source="HaWWDFJNPZMZutAHSfWt-18" target="HaWWDFJNPZMZutAHSfWt-4">
          <mxGeometry relative="1" as="geometry" />
        </mxCell>
        <mxCell id="HaWWDFJNPZMZutAHSfWt-15" style="edgeStyle=orthogonalEdgeStyle;rounded=0;orthogonalLoop=1;jettySize=auto;html=1;startArrow=none;startFill=0;endArrow=classic;endFill=1;" edge="1" parent="HaWWDFJNPZMZutAHSfWt-1" source="HaWWDFJNPZMZutAHSfWt-18" target="HaWWDFJNPZMZutAHSfWt-6">
          <mxGeometry relative="1" as="geometry" />
        </mxCell>
        <mxCell id="HaWWDFJNPZMZutAHSfWt-16" style="edgeStyle=orthogonalEdgeStyle;rounded=0;orthogonalLoop=1;jettySize=auto;html=1;startArrow=none;startFill=0;endArrow=classic;endFill=1;" edge="1" parent="HaWWDFJNPZMZutAHSfWt-1" source="HaWWDFJNPZMZutAHSfWt-18" target="HaWWDFJNPZMZutAHSfWt-7">
          <mxGeometry relative="1" as="geometry" />
        </mxCell>
        <mxCell id="HaWWDFJNPZMZutAHSfWt-17" style="edgeStyle=orthogonalEdgeStyle;rounded=0;orthogonalLoop=1;jettySize=auto;html=1;entryX=0.5;entryY=1;entryDx=0;entryDy=0;entryPerimeter=0;startArrow=none;startFill=0;endArrow=classic;endFill=1;" edge="1" parent="HaWWDFJNPZMZutAHSfWt-1" source="HaWWDFJNPZMZutAHSfWt-18" target="HaWWDFJNPZMZutAHSfWt-8">
          <mxGeometry relative="1" as="geometry" />
        </mxCell>
        <mxCell id="HaWWDFJNPZMZutAHSfWt-18" value="Bastion Server" style="points=[[0,0,0],[0.25,0,0],[0.5,0,0],[0.75,0,0],[1,0,0],[0,1,0],[0.25,1,0],[0.5,1,0],[0.75,1,0],[1,1,0],[0,0.25,0],[0,0.5,0],[0,0.75,0],[1,0.25,0],[1,0.5,0],[1,0.75,0]];outlineConnect=0;fontColor=#232F3E;gradientColor=#F78E04;gradientDirection=north;fillColor=#D05C17;strokeColor=#ffffff;dashed=0;verticalLabelPosition=top;verticalAlign=bottom;align=center;html=1;fontSize=12;fontStyle=0;aspect=fixed;shape=mxgraph.aws4.resourceIcon;resIcon=mxgraph.aws4.ec2;labelPosition=center;" vertex="1" parent="HaWWDFJNPZMZutAHSfWt-1">
          <mxGeometry x="702" y="470" width="38" height="38" as="geometry" />
        </mxCell>
        <mxCell id="HaWWDFJNPZMZutAHSfWt-4" value="Server 1" style="points=[[0,0,0],[0.25,0,0],[0.5,0,0],[0.75,0,0],[1,0,0],[0,1,0],[0.25,1,0],[0.5,1,0],[0.75,1,0],[1,1,0],[0,0.25,0],[0,0.5,0],[0,0.75,0],[1,0.25,0],[1,0.5,0],[1,0.75,0]];outlineConnect=0;fontColor=#232F3E;gradientColor=#F78E04;gradientDirection=north;fillColor=#D05C17;strokeColor=#ffffff;dashed=0;verticalLabelPosition=top;verticalAlign=bottom;align=center;html=1;fontSize=12;fontStyle=0;aspect=fixed;shape=mxgraph.aws4.resourceIcon;resIcon=mxgraph.aws4.ec2;labelPosition=center;" vertex="1" parent="HaWWDFJNPZMZutAHSfWt-1">
          <mxGeometry x="510" y="221" width="38" height="38" as="geometry" />
        </mxCell>
        <mxCell id="HaWWDFJNPZMZutAHSfWt-6" value="Server 2" style="points=[[0,0,0],[0.25,0,0],[0.5,0,0],[0.75,0,0],[1,0,0],[0,1,0],[0.25,1,0],[0.5,1,0],[0.75,1,0],[1,1,0],[0,0.25,0],[0,0.5,0],[0,0.75,0],[1,0.25,0],[1,0.5,0],[1,0.75,0]];outlineConnect=0;fontColor=#232F3E;gradientColor=#F78E04;gradientDirection=north;fillColor=#D05C17;strokeColor=#ffffff;dashed=0;verticalLabelPosition=top;verticalAlign=bottom;align=center;html=1;fontSize=12;fontStyle=0;aspect=fixed;shape=mxgraph.aws4.resourceIcon;resIcon=mxgraph.aws4.ec2;labelPosition=center;" vertex="1" parent="HaWWDFJNPZMZutAHSfWt-1">
          <mxGeometry x="631" y="221" width="38" height="38" as="geometry" />
        </mxCell>
        <mxCell id="HaWWDFJNPZMZutAHSfWt-7" value="Server 3" style="points=[[0,0,0],[0.25,0,0],[0.5,0,0],[0.75,0,0],[1,0,0],[0,1,0],[0.25,1,0],[0.5,1,0],[0.75,1,0],[1,1,0],[0,0.25,0],[0,0.5,0],[0,0.75,0],[1,0.25,0],[1,0.5,0],[1,0.75,0]];outlineConnect=0;fontColor=#232F3E;gradientColor=#F78E04;gradientDirection=north;fillColor=#D05C17;strokeColor=#ffffff;dashed=0;verticalLabelPosition=top;verticalAlign=bottom;align=center;html=1;fontSize=12;fontStyle=0;aspect=fixed;shape=mxgraph.aws4.resourceIcon;resIcon=mxgraph.aws4.ec2;labelPosition=center;" vertex="1" parent="HaWWDFJNPZMZutAHSfWt-1">
          <mxGeometry x="751" y="221" width="38" height="38" as="geometry" />
        </mxCell>
        <mxCell id="HaWWDFJNPZMZutAHSfWt-8" value="Server 4" style="points=[[0,0,0],[0.25,0,0],[0.5,0,0],[0.75,0,0],[1,0,0],[0,1,0],[0.25,1,0],[0.5,1,0],[0.75,1,0],[1,1,0],[0,0.25,0],[0,0.5,0],[0,0.75,0],[1,0.25,0],[1,0.5,0],[1,0.75,0]];outlineConnect=0;fontColor=#232F3E;gradientColor=#F78E04;gradientDirection=north;fillColor=#D05C17;strokeColor=#ffffff;dashed=0;verticalLabelPosition=top;verticalAlign=bottom;align=center;html=1;fontSize=12;fontStyle=0;aspect=fixed;shape=mxgraph.aws4.resourceIcon;resIcon=mxgraph.aws4.ec2;labelPosition=center;" vertex="1" parent="HaWWDFJNPZMZutAHSfWt-1">
          <mxGeometry x="870" y="221" width="38" height="38" as="geometry" />
        </mxCell>
      </root>
    </mxGraphModel>
  </diagram>
</mxfile>
